<svg width="32" height="32" viewBox="0 0 32 32" fill="none" xmlns="http://www.w3.org/2000/svg">
<rect width="32" height="32" fill="#1A1A1A"/>
<path d="M3.648 16.498V12.34H5.106V16.399C5.106 16.819 5.217 17.14 5.439 17.362C5.661 17.584 5.976 17.695 6.384 17.695C6.798 17.695 7.116 17.581 7.338 17.353C7.566 17.125 7.68 16.807 7.68 16.399V12.34H9.138V16.498C9.138 17.026 9.024 17.485 8.796 17.875C8.574 18.265 8.256 18.568 7.842 18.784C7.428 19 6.942 19.108 6.384 19.108C5.832 19.108 5.349 19.003 4.935 18.793C4.527 18.577 4.209 18.274 3.981 17.884C3.759 17.488 3.648 17.026 3.648 16.498ZM11.9362 19H10.4782V12.34H13.0522C13.8622 12.34 14.4862 12.529 14.9242 12.907C15.3682 13.279 15.5902 13.81 15.5902 14.5C15.5902 14.932 15.4972 15.301 15.3112 15.607C15.1312 15.913 14.8552 16.162 14.4832 16.354L15.6532 19H14.0602L13.0612 16.669H11.9362V19ZM11.9362 13.636V15.391H13.0432C13.3612 15.391 13.6072 15.313 13.7812 15.157C13.9612 15.001 14.0512 14.782 14.0512 14.5C14.0512 14.218 13.9642 14.005 13.7902 13.861C13.6222 13.711 13.3762 13.636 13.0522 13.636H11.9362ZM18.1324 12.34V19H16.6744V12.34H18.1324ZM19.3654 16.291H17.6644V15.067H19.2934C19.5574 15.067 19.7584 15.004 19.8964 14.878C20.0344 14.752 20.1034 14.569 20.1034 14.329C20.1034 14.095 20.0344 13.918 19.8964 13.798C19.7584 13.678 19.5574 13.618 19.2934 13.618H17.7634V12.34H19.4464C20.1184 12.34 20.6434 12.505 21.0214 12.835C21.4054 13.165 21.5974 13.615 21.5974 14.185C21.5974 14.575 21.5014 14.905 21.3094 15.175C21.1174 15.445 20.8384 15.637 20.4724 15.751V15.625C20.8624 15.709 21.1594 15.883 21.3634 16.147C21.5734 16.411 21.6784 16.75 21.6784 17.164C21.6784 17.554 21.5914 17.887 21.4174 18.163C21.2494 18.439 20.9974 18.649 20.6614 18.793C20.3314 18.931 19.9264 19 19.4464 19H17.7634V17.722H19.3654C19.6354 17.722 19.8394 17.662 19.9774 17.542C20.1154 17.416 20.1844 17.23 20.1844 16.984C20.1844 16.756 20.1124 16.585 19.9684 16.471C19.8304 16.351 19.6294 16.291 19.3654 16.291ZM24.0998 19H22.6598V12.34H24.0998L27.3578 17.254H26.9078V12.34H28.3478V19H26.9078L23.6498 14.095H24.0998V19Z" fill="#E2FF2E"/>
</svg>
